<?xml version="1.0" encoding="UTF-8" standalone="no"?>
<svg
   xmlns:osb="http://www.openswatchbook.org/uri/2009/osb"
   xmlns:dc="http://purl.org/dc/elements/1.1/"
   xmlns:cc="http://creativecommons.org/ns#"
   xmlns:rdf="http://www.w3.org/1999/02/22-rdf-syntax-ns#"
   xmlns:svg="http://www.w3.org/2000/svg"
   xmlns="http://www.w3.org/2000/svg"
   xmlns:xlink="http://www.w3.org/1999/xlink"
   version="1.1"
   id="svg2"
   viewBox="0 0 453.5433 453.5433"
   height="128mm"
   width="128mm">
  <defs
     id="defs4">
    <linearGradient
       osb:paint="solid"
       id="linearGradient5700">
      <stop
         id="stop5702"
         offset="0"
         style="stop-color:#000000;stop-opacity:1;" />
    </linearGradient>
    <linearGradient
       id="linearGradient5634">
      <stop
         id="stop5636"
         offset="0"
         style="stop-color:#000000;stop-opacity:1;" />
      <stop
         id="stop5638"
         offset="1"
         style="stop-color:#000000;stop-opacity:0;" />
    </linearGradient>
    <linearGradient
       osb:paint="solid"
       id="linearGradient5628">
      <stop
         id="stop5630"
         offset="0"
         style="stop-color:#000000;stop-opacity:1;" />
    </linearGradient>
    <linearGradient
       osb:paint="solid"
       id="linearGradient5610">
      <stop
         id="stop5612"
         offset="0"
         style="stop-color:#000000;stop-opacity:1;" />
    </linearGradient>
    <linearGradient
       gradientUnits="userSpaceOnUse"
       y2="296.59326"
       x2="284.86066"
       y1="296.59326"
       x1="143.03912"
       id="linearGradient5640"
       xlink:href="#linearGradient5634" />
    <linearGradient
       gradientTransform="translate(65.694137,270.2692)"
       y2="296.59326"
       x2="284.86066"
       y1="296.59326"
       x1="143.03912"
       gradientUnits="userSpaceOnUse"
       id="linearGradient5659"
       xlink:href="#linearGradient5628" />
    <linearGradient
       xlink:href="#linearGradient5628"
       id="linearGradient5667"
       gradientUnits="userSpaceOnUse"
       gradientTransform="translate(65.694137,270.2692)"
       x1="143.03912"
       y1="296.59326"
       x2="284.86066"
       y2="296.59326" />
    <linearGradient
       y2="296.59326"
       x2="284.86066"
       y1="296.59326"
       x1="143.03912"
       gradientTransform="translate(69.624223,278.44056)"
       gradientUnits="userSpaceOnUse"
       id="linearGradient5698"
       xlink:href="#linearGradient5628" />
    <linearGradient
       gradientUnits="userSpaceOnUse"
       y2="571.45398"
       x2="371.86987"
       y1="571.45398"
       x1="210.18018"
       id="linearGradient5704"
       xlink:href="#linearGradient5700" />
  </defs>
  <metadata
     id="metadata7">
    <rdf:RDF>
      <cc:Work
         rdf:about="">
        <dc:format>image/svg+xml</dc:format>
        <dc:type
           rdf:resource="http://purl.org/dc/dcmitype/StillImage" />
        <dc:title></dc:title>
      </cc:Work>
    </rdf:RDF>
  </metadata>
  <g
     transform="translate(0,-598.8189)"
     id="layer1">
    <path
       id="text3352"
       transform="translate(0,598.8189)"
       d="M 73.355469 49.736328 C 48.038502 49.736328 35.380859 64.243365 35.380859 93.257812 L 35.380859 388.51172 C 35.380859 392.63309 36.234644 396.09591 37.941406 398.89844 C 41.35493 404.83321 46.687669 407.80078 53.941406 407.80078 C 60.483993 407.80078 65.604751 405.4097 69.302734 400.62891 C 72.005107 397.33181 73.355469 393.29251 73.355469 388.51172 L 73.355469 261.9043 L 156.34766 261.9043 C 192.47411 261.9043 221.20454 251.76542 242.53906 231.48828 C 260.88675 214.01367 270.06055 188.46046 270.06055 154.83008 C 270.06055 121.1997 259.39312 95.234432 238.05859 76.935547 C 216.72407 58.801517 189.6286 49.736328 156.77344 49.736328 L 73.355469 49.736328 z M 82.957031 88.310547 L 162.53516 88.310547 C 176.47371 88.310547 188.63282 91.032447 199.01562 96.472656 C 220.77684 107.68278 231.6582 127.21766 231.6582 155.07812 C 231.6582 182.27917 221.4893 201.81405 201.15039 213.68359 C 190.48313 220.11293 177.46828 223.32812 162.10742 223.32812 L 73.355469 223.32812 L 73.355469 99.933594 C 73.355469 92.185417 76.556675 88.310547 82.957031 88.310547 z M 340.86914 103.55273 C 332.74802 103.55273 326.9083 110.01829 323.34961 122.94727 L 255.72852 368.26758 L 231.5293 261.20312 C 230.9294 258.57551 230.21778 256.24491 229.41211 254.17188 C 220.29259 260.1168 210.15693 264.65074 199.00195 267.76953 L 174.23828 377.32031 L 148.42969 272.96094 L 124.99609 272.96094 L 157.58594 395.82812 C 160.33942 406.24023 165.62315 411.44336 173.43945 411.44336 C 182.05514 411.44336 187.78271 404.93503 190.625 391.91992 L 215.94141 275.46289 L 241.38867 391.91992 C 244.23096 404.93503 249.95852 411.44336 258.57422 411.44336 C 262.50124 411.44336 265.79389 410.09073 268.45898 407.40234 C 271.11915 405.50033 273.17545 401.95494 274.62305 396.75 L 298.43945 309.58203 L 383.02734 309.58203 L 406.8418 396.75 C 409.12301 404.81323 412.95618 408.84375 418.33984 408.84375 C 420.62106 408.84375 422.7205 408.08001 424.63672 406.55078 C 428.7429 403.49231 430.79492 398.27828 430.79492 390.91016 C 430.79492 387.99071 430.38374 385.07179 429.5625 382.15234 L 358.11523 122.94727 C 354.55654 110.01829 348.80776 103.55273 340.86914 103.55273 z M 340.73242 139.62891 L 375.49805 277.46875 L 305.9668 277.46875 L 308.76367 266.37891 L 310.13672 261.20312 C 310.32438 260.48577 310.46619 259.80565 310.58789 259.14453 L 340.73242 139.62891 z "
       style="font-style:normal;font-variant:normal;font-weight:normal;font-stretch:normal;font-size:195.8903656px;line-height:125%;font-family:'UD Digi Kyokasho NP-R';-inkscape-font-specification:'UD Digi Kyokasho NP-R, Normal';text-align:start;letter-spacing:0px;word-spacing:0px;writing-mode:lr-tb;text-anchor:start;fill:#000000;fill-opacity:1;stroke:none;stroke-width:1px;stroke-linecap:butt;stroke-linejoin:miter;stroke-opacity:1" />
  </g>
</svg>
